<svg width="15" height="15" viewBox="0 0 15 15" fill="none" xmlns="http://www.w3.org/2000/svg">
<path d="M13.5 3.15789H11.25V1.57895C11.25 0.708158 10.5773 0 9.75 0H5.25C4.42275 0 3.75 0.708158 3.75 1.57895V3.15789H1.5C0.67275 3.15789 0 3.86605 0 4.73684V13.4211C0 14.2918 0.67275 15 1.5 15H13.5C14.3273 15 15 14.2918 15 13.4211V4.73684C15 3.86605 14.3273 3.15789 13.5 3.15789ZM9.75 1.57895V3.15789H5.25V1.57895H9.75ZM4.5 4.73684H13.5V7.10526H1.5V4.73684H4.5ZM1.5 13.4211V8.68421H6V10.2632H9V8.68421H13.5L13.5007 13.4211H1.5Z" fill="#878895"/>
</svg>
