<svg width="15" height="15" viewBox="0 0 15 15" fill="none" xmlns="http://www.w3.org/2000/svg">
<path id="Vector" d="M5.83333 0H0.833333C0.61232 0 0.400358 0.0877973 0.244078 0.244078C0.0877973 0.400358 0 0.61232 0 0.833333V5.83333C0 6.05435 0.0877973 6.26631 0.244078 6.42259C0.400358 6.57887 0.61232 6.66667 0.833333 6.66667H5.83333C6.05435 6.66667 6.26631 6.57887 6.42259 6.42259C6.57887 6.26631 6.66667 6.05435 6.66667 5.83333V0.833333C6.66667 0.61232 6.57887 0.400358 6.42259 0.244078C6.26631 0.0877973 6.05435 0 5.83333 0ZM14.1667 0H9.16667C8.94565 0 8.73369 0.0877973 8.57741 0.244078C8.42113 0.400358 8.33333 0.61232 8.33333 0.833333V5.83333C8.33333 6.05435 8.42113 6.26631 8.57741 6.42259C8.73369 6.57887 8.94565 6.66667 9.16667 6.66667H14.1667C14.3877 6.66667 14.5996 6.57887 14.7559 6.42259C14.9122 6.26631 15 6.05435 15 5.83333V0.833333C15 0.61232 14.9122 0.400358 14.7559 0.244078C14.5996 0.0877973 14.3877 0 14.1667 0ZM5.83333 8.33333H0.833333C0.61232 8.33333 0.400358 8.42113 0.244078 8.57741C0.0877973 8.73369 0 8.94565 0 9.16667V14.1667C0 14.3877 0.0877973 14.5996 0.244078 14.7559C0.400358 14.9122 0.61232 15 0.833333 15H5.83333C6.05435 15 6.26631 14.9122 6.42259 14.7559C6.57887 14.5996 6.66667 14.3877 6.66667 14.1667V9.16667C6.66667 8.94565 6.57887 8.73369 6.42259 8.57741C6.26631 8.42113 6.05435 8.33333 5.83333 8.33333ZM12.5 9.16667H10.8333V10.8333H9.16667V12.5H10.8333V14.1667H12.5V12.5H14.1667V10.8333H12.5V9.16667Z" fill="#DB192B"/>
</svg>
