<svg width="15" height="15" viewBox="0 0 15 15" fill="none" xmlns="http://www.w3.org/2000/svg">
<path id="Vector" d="M13.5 3.94737H10.5V1.57895C10.5 0.708158 9.82725 0 9 0H6C5.17275 0 4.5 0.708158 4.5 1.57895V5.52632H1.5C0.67275 5.52632 0 6.23447 0 7.10526V14.2105C0 14.4199 0.0790176 14.6207 0.21967 14.7688C0.360322 14.9168 0.551088 15 0.75 15H14.25C14.4489 15 14.6397 14.9168 14.7803 14.7688C14.921 14.6207 15 14.4199 15 14.2105V5.52632C15 4.65553 14.3273 3.94737 13.5 3.94737ZM1.5 7.10526H4.5V13.4211H1.5V7.10526ZM6 6.31579V1.57895H9V13.4211H6V6.31579ZM13.5 13.4211H10.5V5.52632H13.5V13.4211Z" fill="#878895"/>
</svg>
