<svg width="24" height="23" viewBox="0 0 24 23" fill="none" xmlns="http://www.w3.org/2000/svg">
<g id="Frame">
<path id="Vector" d="M5 19.1667C5 19.6751 5.21071 20.1626 5.58579 20.522C5.96086 20.8815 6.46957 21.0834 7 21.0834H17C17.5304 21.0834 18.0391 20.8815 18.4142 20.522C18.7893 20.1626 19 19.6751 19 19.1667V7.66675H21V5.75008H17V3.83341C17 3.32508 16.7893 2.83757 16.4142 2.47813C16.0391 2.11868 15.5304 1.91675 15 1.91675H9C8.46957 1.91675 7.96086 2.11868 7.58579 2.47813C7.21071 2.83757 7 3.32508 7 3.83341V5.75008H3V7.66675H5V19.1667ZM9 3.83341H15V5.75008H9V3.83341ZM8 7.66675H17V19.1667H7V7.66675H8Z" fill="#878895"/>
<path id="Vector_2" d="M9 9.58325H11V17.2499H9V9.58325ZM13 9.58325H15V17.2499H13V9.58325Z" fill="#878895"/>
</g>
</svg>
