<svg width="24" height="23" viewBox="0 0 24 23" fill="none" xmlns="http://www.w3.org/2000/svg">
<rect width="24" height="23" fill="#1E1E1E"/>
<g id="Desktop - 1">
<rect width="1440" height="1024" transform="translate(-1157 -368)" fill="white"/>
<g id="Group 33">
<g id="Frame">
<path id="Vector" d="M7 16.304L11.413 16.2896L21.045 7.14714C21.423 6.78489 21.631 6.3038 21.631 5.79205C21.631 5.2803 21.423 4.79922 21.045 4.43697L19.459 2.91705C18.703 2.19255 17.384 2.19639 16.634 2.91418L7 12.0586V16.304ZM18.045 4.27214L19.634 5.78918L18.037 7.30526L16.451 5.7863L18.045 4.27214ZM9 12.8578L15.03 7.13372L16.616 8.65364L10.587 14.3758L9 14.3806V12.8578Z" fill="#878895"/>
<path id="Vector_2" d="M5 20.125H19C20.103 20.125 21 19.2654 21 18.2083V9.9015L19 11.8182V18.2083H8.158C8.132 18.2083 8.105 18.2179 8.079 18.2179C8.046 18.2179 8.013 18.2093 7.979 18.2083H5V4.79167H11.847L13.847 2.875H5C3.897 2.875 3 3.73462 3 4.79167V18.2083C3 19.2654 3.897 20.125 5 20.125Z" fill="#878895"/>
</g>
</g>
</g>
</svg>
