<svg width="24" height="30" viewBox="0 0 24 30" fill="none" xmlns="http://www.w3.org/2000/svg">
<g id="Husky">
<g id="Group">
<path id="Vector" d="M21.3511 13.0333L21.3259 12.8296L21.1885 12.6762C20.6655 12.0914 19.8599 11.9175 19.473 11.8339L19.4616 11.8316C19.4204 11.8225 19.3861 11.8156 19.3586 11.8087C19.2453 11.779 19.0107 11.6966 18.5335 11.4768C18.5838 11.2605 18.5975 11.1267 18.5998 11.1072L18.6124 10.971L18.5689 10.8405C18.5552 10.8005 18.4316 10.4377 18.134 9.98221C18.0562 9.77393 17.9738 9.40885 17.9383 9.21887L17.912 9.07582L17.8273 8.9568C17.6637 8.72677 17.4073 8.51733 17.1784 8.3594C17.1784 8.35482 17.1807 8.32736 17.1807 8.32736C17.2334 7.63268 17.2883 6.91398 16.8225 5.29918L16.7058 4.89633L16.2915 4.8311C16.2137 4.81851 16.1359 4.81279 16.058 4.81279C15.1379 4.81279 14.5176 5.65281 14.1468 6.15407C14.1113 6.20214 14.0438 6.29369 14.0095 6.33604C13.879 6.42072 13.7566 6.50999 13.6547 6.58896C13.1489 6.44247 12.8353 6.35549 12.4473 6.35549C12.4153 6.35549 12.3832 6.35549 12.3512 6.35778C11.7595 4.77159 10.7833 3 9.37109 3C9.31501 3 9.25779 3.00343 9.20056 3.00916L8.88012 3.04234L8.7096 3.31586C8.00463 4.44428 7.68876 5.28086 7.32941 6.5077C7.28592 6.58323 7.24586 6.65304 7.20695 6.71942C6.79953 7.42211 6.60956 7.74942 6.13118 9.61828C5.78442 9.97077 4.89862 10.9241 4.38477 11.9518C4.19021 12.342 3.96247 12.8193 3.7107 13.372L3.64432 13.5162L3.65119 13.6742C3.6798 14.3482 3.54246 15.0326 3.39598 15.7628C3.33875 16.0454 3.28039 16.3373 3.23232 16.6314C3.12703 17.2711 3.05608 17.9715 3.00801 18.8344L3 18.9809L3.05493 19.1171C4.19365 21.9496 5.29689 23.2119 9.27152 26.2275L10.2889 27L10.3221 25.9528C10.4091 26.0192 10.5201 26.1039 10.6735 26.2195L10.9573 26.4335L11.2926 26.3145C11.6268 26.1955 11.9724 26.0787 12.2986 25.9689C12.2986 25.9689 12.8822 25.772 13.031 25.7217L13.0321 25.7297L13.7692 25.4699C13.8825 25.431 13.9946 25.3886 14.1056 25.3463L14.2086 25.3074L14.2933 25.2364C14.7854 24.8279 15.3702 24.3563 15.9859 23.9524L16.1175 23.8654L16.1965 23.7281C16.4334 23.3138 16.6245 22.8857 16.7642 22.4566C16.7733 22.428 16.8008 22.3627 16.8294 22.2918C17.0571 21.731 17.5172 20.5946 17.3226 19.6527C17.4382 19.4593 17.6065 19.1366 17.4691 18.7589C17.4623 18.7394 17.4554 18.7211 17.4474 18.7017C17.8788 18.4556 18.4934 18.0528 19.0485 17.4966L19.4112 17.619L19.6973 17.2402C19.7225 17.207 20.3073 16.4323 20.614 15.7319L20.6186 15.7216L20.6404 15.6598L20.6438 15.6495C20.7434 15.305 20.7651 15.0189 20.7605 14.814C21.0466 14.4009 21.4357 13.7028 21.3511 13.0333ZM20.0121 15.4641C19.7351 16.0958 19.1732 16.8385 19.1732 16.8385C19.0793 16.8065 18.8138 16.7893 18.6376 16.9713C17.7117 17.9269 16.5559 18.4133 16.5559 18.4133C16.5559 18.4133 16.7241 18.633 16.8511 18.9809C16.9267 19.1881 16.5822 19.4719 16.6348 19.6218C16.9461 20.5053 16.2297 21.9702 16.1393 22.2483C16.0054 22.6591 15.8291 23.0425 15.6266 23.395C15.0132 23.7967 14.4387 24.2545 13.8744 24.7237C13.768 24.7638 13.6627 24.8038 13.5563 24.8404C13.5448 24.8439 13.5334 24.8485 13.522 24.8519C13.522 24.8496 13.522 24.8485 13.5208 24.8473C13.5162 24.8507 13.5105 24.8542 13.5059 24.8576C13.0344 25.0201 12.5618 25.1781 12.0891 25.3371C11.7492 25.4516 11.4093 25.5672 11.0729 25.6873C10.3633 25.1517 10.6014 25.3291 9.83916 24.6734C9.7682 24.8095 9.68695 25.2147 9.67207 25.6965C5.74436 22.7164 4.74183 21.5365 3.66835 18.8653C3.70726 18.1512 3.76792 17.4394 3.88465 16.7333C4.05403 15.7044 4.35616 14.6836 4.31267 13.6421C4.53927 13.1466 4.7693 12.6602 4.97759 12.2425C5.56583 11.066 6.72743 9.9536 6.72743 9.9536C7.27905 7.7723 7.41524 7.69219 7.94283 6.76406C8.27586 5.61847 8.56769 4.78761 9.27152 3.66263C10.2901 3.55734 11.2388 5.068 11.9072 7.07076C12.6362 6.94259 12.8078 7.033 13.8081 7.31682C13.8081 7.31682 14.0976 7.06046 14.4158 6.85904C14.6447 6.71484 15.313 5.34152 16.1919 5.48C16.7161 7.29851 16.5353 7.84326 16.4986 8.70731C16.4986 8.70731 17.0686 9.02432 17.2929 9.3379C17.2929 9.3379 17.4073 9.95589 17.5492 10.2889C17.8342 10.7124 17.9441 11.0454 17.9441 11.0454C17.9441 11.0454 17.9155 11.3498 17.7392 11.8305C18.2245 12.0639 18.8413 12.3535 19.1915 12.445C19.4421 12.5114 20.2524 12.6167 20.6976 13.1145C20.7788 13.7623 20.0807 14.6206 20.0807 14.6206C20.0807 14.6206 20.162 14.9411 20.0121 15.4641Z" fill="#DB192B"/>
<path id="Vector_2" d="M20.6977 13.1155C20.2525 12.6177 19.4411 12.5113 19.1916 12.446C18.8414 12.3545 18.2246 12.0649 17.7393 11.8315C17.9156 11.3508 17.9442 11.0464 17.9442 11.0464C17.9442 11.0464 17.8343 10.7134 17.5493 10.2899C17.4063 9.95689 17.293 9.3389 17.293 9.3389C17.0698 9.02532 16.4987 8.70831 16.4987 8.70831C16.5342 7.84541 16.715 7.29951 16.192 5.481C15.3131 5.34252 14.6448 6.7147 14.4159 6.86005C14.0977 7.06147 13.8082 7.31782 13.8082 7.31782C12.8079 7.034 12.6363 6.94359 11.9073 7.07177C11.2401 5.069 10.2913 3.55834 9.27162 3.66363C8.56894 4.78861 8.27596 5.61948 7.94293 6.76506C7.41535 7.69434 7.27916 7.77445 6.72754 9.95461C6.72754 9.95461 5.56479 11.067 4.97769 12.2435C4.76941 12.6612 4.53937 13.1476 4.31278 13.6431C4.35626 14.6846 4.05528 15.7054 3.88476 16.7343C3.76802 17.4404 3.70737 18.1534 3.66846 18.8663C4.74194 21.5375 5.74447 22.7174 9.67218 25.6975C9.68705 25.2157 9.76831 24.8105 9.83926 24.6744C10.6003 25.3301 10.3634 25.1527 11.073 25.6883C11.4106 25.5682 11.7493 25.4526 12.0892 25.3381C12.5619 25.1791 13.0345 25.0211 13.506 24.8586C13.5106 24.8552 13.5163 24.8517 13.5209 24.8483C13.5209 24.8506 13.5209 24.8517 13.5221 24.8529C13.5335 24.8495 13.545 24.8449 13.5564 24.8414C13.6628 24.8048 13.7693 24.7648 13.8746 24.7247C14.4388 24.2555 15.0144 23.7989 15.6267 23.396C15.8293 23.0424 16.0055 22.6602 16.1394 22.2493C16.2298 21.9712 16.9462 20.5063 16.6349 19.6228C16.5823 19.4729 16.9268 19.1879 16.8512 18.9819C16.7242 18.634 16.556 18.4143 16.556 18.4143C16.556 18.4143 17.7119 17.9279 18.6377 16.9723C18.8139 16.7903 19.0795 16.8086 19.1733 16.8395C19.1733 16.8395 19.7352 16.0968 20.0122 15.4651C20.1632 14.9421 20.082 14.6228 20.082 14.6228C20.082 14.6228 20.7789 13.7633 20.6977 13.1155ZM20.2445 13.0904C20.3189 13.4348 19.9263 13.8766 19.9263 13.8766C19.9263 13.8766 19.9973 13.6317 19.9755 13.436C19.9755 13.436 19.8451 13.2563 19.3324 13.3433C19.3324 13.3433 19.0657 13.3158 18.8746 13.2277C19.2122 13.0011 19.8611 12.7356 20.2445 13.0904ZM15.2914 7.62911C15.4081 7.43684 15.6175 7.3945 15.6175 7.3945C15.5168 7.87173 15.7182 8.35697 15.7182 8.35697C15.2994 8.03882 14.7466 7.7962 14.7466 7.7962C14.9309 6.97563 15.4585 5.97082 15.9277 6.01316C16.1794 6.76735 16.2332 7.25488 16.0867 8.22879C15.9403 7.09923 15.6954 7.09694 15.7881 6.61285C15.3188 6.85547 15.2914 7.02599 15.2914 7.62911ZM9.76259 8.34667C9.9148 7.86601 10.1723 7.23428 9.9972 6.62544C9.9972 6.62544 10.36 6.54304 10.5591 6.78909C10.606 6.27409 10.2433 5.62978 9.6573 5.53593C9.30596 5.91016 8.43962 8.07773 9.13086 10.0565C9.13086 10.0565 9.00154 10.2316 8.68567 10.2201C8.68567 10.2201 8.70856 10.5715 8.54491 10.782C7.70146 10.9697 6.77675 11.6369 6.1908 12.3511C6.40137 11.7891 6.91637 10.7111 7.93606 10.0553C7.93606 10.0553 7.95895 9.30571 7.85367 8.76668C7.85367 8.76668 8.16953 9.08254 8.43962 9.23475C8.28626 7.85685 8.55063 5.9033 9.61038 4.36288C10.0361 4.37547 11.2252 5.62176 11.4609 8.07544C11.4609 8.07544 11.295 8.15669 11.0856 8.06399C11.0501 8.32149 10.7228 8.96581 10.043 9.43389C9.98461 9.29312 9.85529 9.17639 9.5749 9.16494C9.5749 9.16494 9.69163 8.84908 9.99605 8.84908C9.9972 8.85137 9.78548 8.58128 9.76259 8.34667ZM15.0785 23.0699C15.098 22.7906 15.0877 22.5514 15.0487 22.3569C14.3735 23.1442 12.9144 24.1193 11.9645 24.4386C10.6312 23.6032 10.1036 23.3388 8.69712 22.0467C8.62959 22.342 8.59755 22.6498 8.59412 22.9691C5.78795 20.3106 5.80741 19.8219 5.27181 18.3307C6.1599 19.5438 6.8786 20.2374 8.06882 20.9824C8.08026 20.7844 8.11345 20.5944 8.17525 20.4148C9.14459 21.1541 9.93654 21.51 10.8361 21.9346C9.7809 20.7581 8.9981 19.7682 7.98985 18.4028C7.92233 18.5802 7.88685 18.7691 7.87655 19.0346C7.53551 18.7347 7.25856 18.3147 7.0434 17.8157C6.92896 17.9393 6.82825 18.0813 6.7447 18.2461C6.22513 17.1234 6.20911 16.7983 6.92667 15.7283C7.0434 16.2914 7.22766 16.6667 7.47371 16.8716C7.50576 16.7663 7.54924 16.6713 7.60647 16.5901C8.03792 17.1257 8.74175 17.8112 9.25446 18.0378C9.5337 18.1602 10.4607 18.135 10.7537 17.9325C9.50509 17.2309 9.04846 16.9815 8.1043 14.8597C8.58496 15.0622 8.99581 15.1881 9.33113 15.2316C8.82987 14.8105 8.41101 14.3321 8.1043 13.7736C8.1043 13.7736 9.13658 13.5916 9.40094 13.3044C9.46618 13.2334 9.31969 13.0434 9.28421 12.9794C9.86787 12.7436 10.4149 12.4563 10.6953 12.2C10.7983 12.1061 11.1542 12.0558 11.3705 12.0878C11.7207 12.3305 11.8512 12.7608 12.1568 12.9679C12.3421 13.0938 12.753 13.0606 12.9888 12.9874C13.3596 12.8729 13.7086 12.628 13.7086 12.628C13.2417 12.6246 12.8674 12.485 12.5974 12.2675C12.222 11.9642 11.8993 11.5248 11.6074 11.3359C11.7219 11.17 11.9244 11.0464 11.9244 11.0464C11.9244 11.0464 11.6074 10.9434 11.4426 10.7763C12.0572 10.3826 12.1602 9.95575 12.365 9.83787C12.5653 9.72343 12.864 9.7818 12.864 9.7818C12.864 9.58266 12.7461 9.42587 12.7461 9.42587C13.2691 8.02279 13.7109 8.74837 14.0291 8.43708C14.8862 8.90859 15.3188 9.39955 15.7423 10.5108C15.629 9.47394 15.4562 9.09055 15.1643 8.5561C15.8121 9.04249 16.0169 9.36636 16.2744 10.5577C16.3385 9.58724 16.5354 9.30685 16.5354 9.30685C16.7471 9.39612 16.9542 9.57809 16.9691 9.6788C17.0115 9.95689 17.071 10.3883 17.071 10.3883C17.3571 10.8518 17.4452 11.059 17.4532 11.1048C17.4166 11.2135 17.3731 11.3852 17.309 11.3829C17.1797 11.3783 17.0973 11.1654 17.0973 11.1654C16.984 11.297 16.9588 11.4607 16.8741 11.4653C16.6613 11.4767 16.5022 11.2513 16.5022 11.2513C16.5789 11.5053 16.6452 11.7445 16.9016 11.8887C17.1579 12.0329 18.006 12.509 18.672 12.7436C18.5782 12.7699 18.474 12.81 18.3413 12.8855C18.2944 13.135 18.2566 13.3936 18.2715 13.6214C18.2772 13.7084 18.7693 14.0334 18.9673 14.6766C18.9936 14.7624 19.1756 14.9089 19.2797 14.9547C19.4194 14.9135 19.5658 14.8047 19.5658 14.8047C19.5658 15.0668 19.5121 15.2843 19.5121 15.2843C19.5121 15.2843 19.3484 15.7134 19.0543 15.9366C18.9513 15.7981 18.9181 15.726 18.8448 15.6653C18.6446 15.6608 17.1877 16.4768 15.6793 16.0796C14.7581 15.837 13.7773 15.2362 13.1158 15.6791C14.0748 15.7706 15.0854 16.5134 15.7137 16.621C16.7345 16.7961 17.0229 16.5855 17.642 16.5283C17.9648 16.4985 18.1353 16.5958 18.117 16.677C18.0666 16.8922 16.7116 17.8558 15.5374 17.5983C15.0579 17.1474 14.0313 16.8636 13.3206 16.8773C12.8056 16.9139 12.2311 17.303 12.2311 17.303C13.0689 17.3763 13.4008 17.5468 14.084 18.309C13.783 18.309 13.5656 18.3571 13.3298 18.5333C14.3884 19.2303 14.2064 20.6952 13.7853 22.0399C14.3289 21.8556 15.1002 21.2937 15.3921 20.9355C15.423 21.09 15.4356 21.3028 15.423 21.4779C15.5843 21.328 16.0696 20.7695 16.3648 19.9696C16.6143 21.0225 15.9094 22.1864 15.0785 23.0699Z" fill="#020202"/>
<path id="Vector_3" d="M16.3638 19.9707C16.0685 20.7707 15.5833 21.3292 15.4219 21.4791C15.4345 21.304 15.4219 21.0911 15.391 20.9366C15.0992 21.2948 14.3278 21.8568 13.7842 22.041C14.2054 20.6963 14.3862 19.2314 13.3287 18.5345C13.5645 18.3582 13.7819 18.3102 14.0829 18.3102C13.3985 17.548 13.0678 17.3786 12.2301 17.3042C12.2301 17.3042 12.8034 16.9162 13.3196 16.8785C14.0303 16.8647 15.0568 17.1497 15.5364 17.5995C16.7094 17.857 18.0644 16.8933 18.1159 16.6782C18.1354 16.5969 17.9637 16.4997 17.641 16.5294C17.0218 16.5866 16.7334 16.7972 15.7126 16.6221C15.0843 16.5145 14.0749 15.7718 13.1147 15.6802C13.7762 15.2373 14.757 15.8382 15.6783 16.0808C17.1866 16.4779 18.6446 15.6619 18.8438 15.6665C18.917 15.726 18.9502 15.7993 19.0532 15.9377C19.3473 15.7146 19.511 15.2854 19.511 15.2854C19.511 15.2854 19.5648 15.0668 19.5648 14.8059C19.5648 14.8059 19.4183 14.9146 19.2787 14.9558C19.1745 14.9089 18.9926 14.7635 18.9662 14.6777C18.7694 14.0345 18.2761 13.7095 18.2704 13.6225C18.2555 13.3936 18.2933 13.1361 18.3402 12.8867C18.473 12.8111 18.5783 12.7711 18.671 12.7448C18.0049 12.5101 17.1569 12.0352 16.9005 11.8899C16.6442 11.7445 16.5778 11.5065 16.5011 11.2524C16.5011 11.2524 16.6602 11.4779 16.8731 11.4664C16.9577 11.4618 16.9829 11.2982 17.0962 11.1666C17.0962 11.1666 17.1786 11.3794 17.3079 11.384C17.372 11.3863 17.4155 11.2146 17.4521 11.1059C17.4441 11.0601 17.356 10.853 17.0699 10.3895C17.0699 10.3895 17.0104 9.95805 16.968 9.67995C16.952 9.57809 16.746 9.39613 16.5343 9.308C16.5343 9.308 16.3375 9.58839 16.2734 10.5589C16.017 9.36752 15.811 9.04364 15.1633 8.55725C15.4551 9.09056 15.6279 9.47509 15.7412 10.512C15.3178 9.4007 14.8852 8.9086 14.028 8.43823C13.7098 8.74952 13.2681 8.02395 12.7451 9.42703C12.7451 9.42703 12.863 9.58496 12.863 9.78295C12.863 9.78295 12.5654 9.72458 12.364 9.83902C12.1591 9.95576 12.0561 10.3826 11.4416 10.7775C11.6064 10.9446 11.9234 11.0475 11.9234 11.0475C11.9234 11.0475 11.7208 11.1711 11.6064 11.3371C11.8982 11.5259 12.2209 11.9642 12.5963 12.2687C12.8664 12.4873 13.2406 12.6257 13.7075 12.6292C13.7075 12.6292 13.3596 12.8741 12.9877 12.9885C12.7519 13.0618 12.3411 13.0949 12.1557 12.9691C11.8501 12.7619 11.7197 12.3316 11.3695 12.089C11.1532 12.0569 10.7972 12.1073 10.6942 12.2011C10.4139 12.4564 9.86681 12.7448 9.28315 12.9805C9.31863 13.0446 9.46512 13.2346 9.39988 13.3055C9.13552 13.5928 8.10323 13.7747 8.10323 13.7747C8.40994 14.3332 8.82881 14.8127 9.33007 15.2328C8.99475 15.1904 8.5839 15.0634 8.10323 14.8608C9.0474 16.9826 9.50403 17.2321 10.7526 17.9336C10.4596 18.1362 9.53378 18.1625 9.2534 18.0389C8.73954 17.8135 8.03686 17.1279 7.6054 16.5912C7.54818 16.6725 7.50469 16.7674 7.47265 16.8727C7.2266 16.669 7.04234 16.2937 6.92561 15.7294C6.20805 16.7995 6.22407 17.1245 6.74364 18.2472C6.82604 18.0824 6.92675 17.9405 7.04234 17.8169C7.2575 18.3147 7.53445 18.7347 7.87549 19.0357C7.88694 18.7702 7.92241 18.5814 7.98879 18.404C8.99704 19.7682 9.77984 20.7581 10.835 21.9357C9.93433 21.5111 9.14238 21.1552 8.17419 20.4159C8.11125 20.5956 8.0792 20.7856 8.06776 20.9836C6.87754 20.2397 6.15769 19.545 5.27075 18.3319C5.80635 19.8242 5.78689 20.3118 8.59305 22.9703C8.59534 22.6521 8.62853 22.3443 8.69605 22.0479C10.1014 23.34 10.6302 23.6043 11.9634 24.4398C12.9133 24.1205 14.3725 23.1454 15.0477 22.358C15.0877 22.5526 15.0969 22.7918 15.0774 23.071C15.9094 22.1864 16.6144 21.0225 16.3638 19.9707ZM13.6721 11.9368C13.4363 11.883 12.7931 11.138 12.4716 11.0659C12.8675 10.7077 13.3745 10.5909 13.6492 10.5806C13.6492 10.4708 13.5576 10.2144 13.5576 10.2144C14.2134 10.2979 14.6254 11.0807 14.979 11.2066C15.3109 11.3245 15.8671 11.1746 15.8671 11.1746C15.8614 11.3085 15.8076 11.4767 15.6691 11.6804C15.6691 11.6804 15.7527 12.1908 15.4356 12.7127C15.058 12.0707 14.6071 11.8212 14.6071 11.8212C14.2866 11.9505 13.909 11.9906 13.6721 11.9368Z" fill="white"/>
<path id="Vector_4" d="M14.6067 11.8214C14.6067 11.8214 15.0576 12.0709 15.4353 12.7129C15.7534 12.191 15.6688 11.6806 15.6688 11.6806C15.8072 11.4769 15.861 11.3087 15.8667 11.1748C15.8667 11.1748 15.3105 11.3247 14.9787 11.2068C14.625 11.0809 14.213 10.2981 13.5573 10.2146C13.5573 10.2146 13.6488 10.471 13.6488 10.5808C13.3742 10.5911 12.8672 10.7079 12.4712 11.0661C12.7928 11.1382 13.436 11.8843 13.6717 11.937C13.9086 11.9908 14.2863 11.9507 14.6067 11.8214ZM13.468 11.1691C13.6431 11.0146 13.9189 11.0386 13.9418 11.0386C14.118 11.1782 14.3629 11.4151 14.3629 11.4151L13.7541 11.4689C13.7541 11.4689 13.5813 11.3751 13.468 11.1691Z" fill="#020202"/>
<path id="Vector_5" d="M13.9418 11.0385C13.9189 11.0385 13.6431 11.0144 13.468 11.1689C13.5813 11.3749 13.7541 11.4688 13.7541 11.4688L14.363 11.415C14.3641 11.415 14.1181 11.1769 13.9418 11.0385Z" fill="white"/>
<path id="Vector_6" d="M9.57478 9.16754C9.85631 9.17898 9.98448 9.29686 10.0429 9.43648C10.7226 8.96841 11.05 8.32409 11.0854 8.06659C11.2949 8.16043 11.4608 8.07803 11.4608 8.07803C11.2251 5.62322 10.036 4.37807 9.61025 4.36548C8.5505 5.90704 8.28614 7.85945 8.43949 9.23735C8.17055 9.08514 7.85354 8.76927 7.85354 8.76927C7.95883 9.3083 7.93594 10.0579 7.93594 10.0579C6.91739 10.7137 6.40125 11.7917 6.19067 12.3537C6.77663 11.6395 7.70133 10.9712 8.54478 10.7846C8.70844 10.5741 8.68555 10.2227 8.68555 10.2227C9.00141 10.2342 9.13073 10.0591 9.13073 10.0591C8.43949 8.08032 9.30698 5.91276 9.65718 5.53853C10.2431 5.63237 10.6059 6.27669 10.559 6.79169C10.3599 6.54563 9.99707 6.62803 9.99707 6.62803C10.1722 7.23687 9.91467 7.86975 9.76246 8.34927C9.78535 8.58388 9.99707 8.85282 9.99707 8.85282C9.69151 8.85167 9.57478 9.16754 9.57478 9.16754Z" fill="white"/>
<path id="Vector_7" d="M16.0855 8.22882C16.2331 7.25491 16.1782 6.76738 15.9264 6.01319C15.4572 5.97199 14.9296 6.97566 14.7454 7.79622C14.7454 7.79622 15.2981 8.03885 15.717 8.357C15.717 8.357 15.5156 7.87176 15.6163 7.39453C15.6163 7.39453 15.4068 7.43687 15.2901 7.62914C15.2901 7.02602 15.3187 6.85435 15.7857 6.61288C15.6952 7.09697 15.939 7.09926 16.0855 8.22882Z" fill="white"/>
<path id="Vector_8" d="M18.8755 13.2269C19.0666 13.315 19.3333 13.3424 19.3333 13.3424C19.8448 13.2555 19.9764 13.4351 19.9764 13.4351C19.9982 13.6308 19.9272 13.8758 19.9272 13.8758C19.9272 13.8758 20.3198 13.4351 20.2454 13.0895C19.8608 12.7359 19.212 13.0014 18.8755 13.2269Z" fill="white"/>
</g>
</g>
</svg>
