<svg width="15" height="15" viewBox="0 0 15 15" fill="none" xmlns="http://www.w3.org/2000/svg">
<path id="Vector" d="M0.812201 14.9942C0.876524 15.0019 0.94155 15.0019 1.00587 14.9942L4.23375 14.1874C4.37694 14.1534 4.5081 14.0809 4.61303 13.9777L14.5307 4.03084C14.8313 3.72854 15 3.31961 15 2.89336C15 2.46711 14.8313 2.05818 14.5307 1.75589L13.2557 0.473201C13.1058 0.323189 12.9278 0.204183 12.7318 0.122988C12.5359 0.0417924 12.3259 0 12.1138 0C11.9017 0 11.6917 0.0417924 11.4958 0.122988C11.2998 0.204183 11.1218 0.323189 10.9719 0.473201L1.05429 10.3878C0.950022 10.4932 0.87494 10.6238 0.83641 10.767L0.0294407 13.9938C0.000436518 14.0982 -0.00724022 14.2074 0.00686836 14.3148C0.0209769 14.4222 0.0565819 14.5257 0.111559 14.619C0.166536 14.7124 0.23976 14.7937 0.326861 14.8582C0.413962 14.9226 0.513157 14.9689 0.618528 14.9942C0.682852 15.0019 0.747877 15.0019 0.812201 14.9942ZM12.1098 1.61068L13.3929 2.89336L12.1098 4.17605L10.8348 2.89336L12.1098 1.61068ZM2.35351 11.372L9.68886 4.03084L10.9719 5.31352L3.62852 12.6547L1.92582 13.0742L2.35351 11.372Z" fill="#878895"/>
</svg>
