<svg width="23" height="23" viewBox="0 0 23 23" fill="none" xmlns="http://www.w3.org/2000/svg">
<g id="download 1">
<rect width="23" height="23" rx="11.5" fill="#F8FAFB"/>
<path id="Vector" d="M7.1875 4.3125H4.3125V7.1875H7.1875V4.3125Z" fill="#0697E0"/>
<path id="Vector_2" d="M7.1875 12.9375H4.3125V15.8125H7.1875V12.9375Z" fill="#0697E0"/>
<path id="Vector_3" d="M7.1875 15.8125H4.3125V18.6875H7.1875V15.8125Z" fill="#0697E0"/>
<path id="Vector_4" d="M10.0625 4.3125H7.1875V7.1875H10.0625V4.3125Z" fill="#0697E0"/>
<path id="Vector_5" d="M10.0625 7.1875H7.1875V10.0625H10.0625V7.1875Z" fill="#0697E0"/>
<path id="Vector_6" d="M12.9375 10.0625H10.0625V12.9375H12.9375V10.0625Z" fill="#0697E0"/>
<path id="Vector_7" d="M18.6875 4.3125H15.8125V7.1875H18.6875V4.3125Z" fill="#0697E0"/>
<path id="Vector_8" d="M18.6875 12.9375H15.8125V15.8125H18.6875V12.9375Z" fill="#0697E0"/>
<path id="Vector_9" d="M18.6875 15.8125H15.8125V18.6875H18.6875V15.8125Z" fill="#0697E0"/>
<path id="Vector_10" d="M15.8125 4.3125H12.9375V7.1875H15.8125V4.3125Z" fill="#0697E0"/>
<path id="Vector_11" d="M15.8125 7.1875H12.9375V10.0625H15.8125V7.1875Z" fill="#0697E0"/>
</g>
</svg>
