<svg width="6" height="6" viewBox="0 0 6 6" fill="none" xmlns="http://www.w3.org/2000/svg">
<path id="Vector" d="M6 4.46291L5.99745 0.464434C5.99745 0.190122 5.8172 0 5.53254 0H1.53552C1.27036 0 1.08256 0.20207 1.08256 0.43552C1.08256 0.668255 1.28667 0.859492 1.52318 0.859492H2.94057L4.65586 0.800792L3.93128 1.43918L0.140822 5.23897C0.0512658 5.32998 0 5.44165 0 5.55294C0 5.78352 0.20984 6 0.446827 6C0.5613 6 0.669642 5.95524 0.760632 5.86165L4.55831 2.06658L5.2029 1.33834L5.13769 2.98598V4.47528C5.13769 4.71263 5.32813 4.91938 5.56399 4.91938C5.79804 4.91938 6 4.72027 6 4.46291Z" fill="#2EAE75"/>
</svg>
